<?xml version="1.0" encoding="utf-8"?>
<!-- Generator: Adobe Illustrator 26.0.3, SVG Export Plug-In . SVG Version: 6.00 Build 0)  -->
<svg version="1.1" id="Layer_1" xmlns="http://www.w3.org/2000/svg" xmlns:xlink="http://www.w3.org/1999/xlink" x="0px" y="0px"
	 viewBox="222 232 650 180" xml:space="preserve">
<path d="M284.4,346.43c-3.92,0-7.67-0.64-11.26-1.92c-3.59-1.28-6.37-2.93-8.33-4.94l2.19-4.29c1.86,1.81,4.36,3.33,7.5,4.56
	c3.14,1.23,6.44,1.85,9.91,1.85c3.32,0,6.01-0.41,8.1-1.24c2.08-0.83,3.62-1.95,4.6-3.35c0.98-1.41,1.47-2.96,1.47-4.67
	c0-2.06-0.59-3.72-1.77-4.97c-1.18-1.25-2.73-2.25-4.63-2.98c-1.91-0.73-4.02-1.37-6.33-1.92c-2.31-0.55-4.62-1.14-6.93-1.77
	c-2.31-0.63-4.43-1.47-6.37-2.52c-1.93-1.05-3.49-2.45-4.67-4.18c-1.18-1.73-1.77-4.01-1.77-6.82c0-2.61,0.69-5.01,2.07-7.2
	c1.38-2.19,3.5-3.94,6.37-5.27c2.86-1.33,6.53-2,11-2c2.96,0,5.9,0.42,8.82,1.24c2.91,0.83,5.42,1.97,7.53,3.43l-1.88,4.45
	c-2.26-1.51-4.66-2.61-7.2-3.32c-2.54-0.7-4.99-1.05-7.35-1.05c-3.16,0-5.78,0.43-7.84,1.28c-2.06,0.85-3.58,2-4.56,3.43
	c-0.98,1.43-1.47,3.05-1.47,4.86c0,2.06,0.59,3.72,1.77,4.97c1.18,1.26,2.74,2.24,4.67,2.94c1.93,0.7,4.06,1.33,6.37,1.88
	c2.31,0.55,4.61,1.16,6.89,1.81c2.29,0.65,4.4,1.5,6.33,2.52c1.93,1.03,3.49,2.4,4.67,4.11c1.18,1.71,1.77,3.94,1.77,6.71
	c0,2.56-0.7,4.94-2.11,7.12c-1.41,2.18-3.55,3.94-6.44,5.27C292.62,345.77,288.92,346.43,284.4,346.43z"/>
<polygon points="330.28,345.98 330.28,298.06 311.75,298.06 311.75,293.24 354.39,293.24 354.39,298.06 335.86,298.06 
	335.86,345.98 "/>
<path d="M390.18,346.43c-3.97,0-7.65-0.67-11.04-2c-3.39-1.33-6.33-3.21-8.82-5.65c-2.49-2.44-4.42-5.27-5.8-8.51
	c-1.38-3.24-2.07-6.79-2.07-10.66c0-3.87,0.69-7.42,2.07-10.66c1.38-3.24,3.31-6.08,5.8-8.51c2.49-2.44,5.41-4.32,8.78-5.65
	c3.36-1.33,7.06-2,11.08-2c3.97,0,7.63,0.67,11,2c3.36,1.33,6.29,3.2,8.78,5.61s4.42,5.25,5.8,8.51c1.38,3.27,2.07,6.83,2.07,10.7
	c0,3.87-0.69,7.43-2.07,10.7c-1.38,3.27-3.32,6.1-5.8,8.51c-2.49,2.41-5.41,4.28-8.78,5.61
	C397.82,345.77,394.15,346.43,390.18,346.43z M390.18,341.46c3.17,0,6.09-0.54,8.78-1.62c2.69-1.08,5.02-2.61,7.01-4.6
	c1.98-1.98,3.53-4.29,4.63-6.93c1.1-2.64,1.66-5.54,1.66-8.7c0-3.17-0.55-6.07-1.66-8.7c-1.11-2.64-2.65-4.95-4.63-6.93
	c-1.99-1.98-4.32-3.52-7.01-4.6c-2.69-1.08-5.61-1.62-8.78-1.62c-3.17,0-6.1,0.54-8.82,1.62c-2.71,1.08-5.07,2.61-7.08,4.6
	c-2.01,1.98-3.57,4.29-4.67,6.93c-1.11,2.64-1.66,5.54-1.66,8.7c0,3.12,0.55,6,1.66,8.67c1.1,2.66,2.66,4.99,4.67,6.97
	c2.01,1.98,4.37,3.52,7.08,4.6C384.08,340.92,387.02,341.46,390.18,341.46z"/>
<polygon points="434.94,345.98 434.94,293.24 439.54,293.24 475.93,339.05 473.52,339.05 473.52,293.24 479.02,293.24 
	479.02,345.98 474.42,345.98 438.11,300.17 440.52,300.17 440.52,345.98 "/>
<path d="M506.37,341.16h31.72v4.82h-37.3v-52.74h36.17v4.82h-30.59V341.16z M505.77,316.82h27.88v4.75h-27.88V316.82z"/>
<path d="M594.67,346.43c-3.92,0-7.67-0.64-11.26-1.92c-3.59-1.28-6.37-2.93-8.33-4.94l2.19-4.29c1.86,1.81,4.36,3.33,7.5,4.56
	c3.14,1.23,6.44,1.85,9.91,1.85c3.32,0,6.01-0.41,8.1-1.24c2.08-0.83,3.62-1.95,4.6-3.35c0.98-1.41,1.47-2.96,1.47-4.67
	c0-2.06-0.59-3.72-1.77-4.97c-1.18-1.25-2.73-2.25-4.63-2.98c-1.91-0.73-4.02-1.37-6.33-1.92c-2.31-0.55-4.62-1.14-6.93-1.77
	c-2.31-0.63-4.43-1.47-6.37-2.52c-1.93-1.05-3.49-2.45-4.67-4.18c-1.18-1.73-1.77-4.01-1.77-6.82c0-2.61,0.69-5.01,2.07-7.2
	c1.38-2.19,3.5-3.94,6.37-5.27c2.86-1.33,6.53-2,11-2c2.96,0,5.9,0.42,8.82,1.24c2.91,0.83,5.43,1.97,7.54,3.43l-1.88,4.45
	c-2.26-1.51-4.66-2.61-7.2-3.32c-2.54-0.7-4.99-1.05-7.35-1.05c-3.16,0-5.78,0.43-7.84,1.28c-2.06,0.85-3.58,2-4.56,3.43
	c-0.98,1.43-1.47,3.05-1.47,4.86c0,2.06,0.59,3.72,1.77,4.97c1.18,1.26,2.74,2.24,4.67,2.94c1.93,0.7,4.06,1.33,6.37,1.88
	c2.31,0.55,4.61,1.16,6.89,1.81c2.29,0.65,4.39,1.5,6.33,2.52c1.93,1.03,3.49,2.4,4.67,4.11c1.18,1.71,1.77,3.94,1.77,6.71
	c0,2.56-0.7,4.94-2.11,7.12c-1.41,2.18-3.55,3.94-6.44,5.27C602.9,345.77,599.2,346.43,594.67,346.43z"/>
<path d="M636.64,345.98h-5.58v-52.74h5.58V345.98z M670.17,321.64h-34.13v-4.9h34.13V321.64z M669.65,293.24h5.5v52.74h-5.5V293.24z
	"/>
<path d="M688.48,345.98l24.11-52.74h5.5l24.11,52.74h-5.88l-22.15-49.5h2.26l-22.15,49.5H688.48z M697.97,331.89l1.66-4.52h30.67
	l1.66,4.52H697.97z"/>
<path d="M755.54,345.98v-52.74h19.74c4.47,0,8.31,0.72,11.53,2.15c3.21,1.43,5.69,3.49,7.42,6.18c1.73,2.69,2.6,5.94,2.6,9.76
	c0,3.72-0.87,6.92-2.6,9.61c-1.73,2.69-4.21,4.75-7.42,6.18c-3.21,1.43-7.06,2.15-11.53,2.15h-16.65l2.49-2.56v19.29H755.54z
	 M761.12,327.14l-2.49-2.64h16.5c5.27,0,9.28-1.16,12.02-3.47c2.74-2.31,4.11-5.55,4.11-9.72c0-4.22-1.37-7.48-4.11-9.8
	c-2.74-2.31-6.74-3.47-12.02-3.47h-16.5l2.49-2.64V327.14z M791.56,345.98l-13.56-19.14h6.03l13.64,19.14H791.56z"/>
<path d="M814.61,345.98v-52.74h19.74c4.47,0,8.31,0.72,11.53,2.15c3.21,1.43,5.69,3.49,7.42,6.18c1.73,2.69,2.6,5.94,2.6,9.76
	c0,3.72-0.87,6.92-2.6,9.61c-1.73,2.69-4.21,4.76-7.42,6.22c-3.21,1.46-7.06,2.19-11.53,2.19H817.7l2.49-2.64v19.29H814.61z
	 M820.19,327.14l-2.49-2.71h16.5c5.27,0,9.28-1.14,12.02-3.43c2.74-2.29,4.11-5.51,4.11-9.68c0-4.22-1.37-7.48-4.11-9.8
	c-2.74-2.31-6.74-3.47-12.02-3.47h-16.5l2.49-2.64V327.14z"/>
<path d="M424.45,399.1l10.95-23.96h2.5l10.95,23.96h-2.67l-10.06-22.49h1.03l-10.06,22.49H424.45z M428.76,392.7l0.75-2.05h13.93
	l0.75,2.05H428.76z"/>
<path d="M482.77,399.3c-1.8,0-3.47-0.3-5-0.91c-1.53-0.6-2.85-1.45-3.97-2.55c-1.12-1.1-1.99-2.38-2.62-3.87
	c-0.63-1.48-0.94-3.1-0.94-4.86c0-1.76,0.31-3.38,0.94-4.86c0.63-1.48,1.51-2.77,2.63-3.87c1.13-1.1,2.46-1.95,3.99-2.55
	c1.53-0.6,3.2-0.91,5-0.91c1.73,0,3.37,0.29,4.89,0.87c1.53,0.58,2.82,1.45,3.87,2.62l-1.61,1.61c-0.98-1-2.07-1.73-3.25-2.17
	c-1.19-0.45-2.46-0.67-3.83-0.67c-1.44,0-2.77,0.25-4.01,0.74c-1.23,0.49-2.3,1.19-3.22,2.09c-0.91,0.9-1.63,1.95-2.14,3.15
	c-0.51,1.2-0.77,2.52-0.77,3.95s0.26,2.76,0.77,3.95c0.51,1.2,1.23,2.25,2.14,3.15c0.91,0.9,1.99,1.6,3.22,2.09
	c1.23,0.49,2.57,0.74,4.01,0.74c1.37,0,2.65-0.23,3.83-0.68c1.19-0.46,2.27-1.19,3.25-2.19l1.61,1.61
	c-1.05,1.16-2.34,2.04-3.87,2.64C486.17,399.01,484.53,399.3,482.77,399.3z"/>
<path d="M512.42,399.1l10.95-23.96h2.5l10.95,23.96h-2.67l-10.06-22.49h1.03l-10.06,22.49H512.42z M516.73,392.7l0.75-2.05h13.93
	l0.75,2.05H516.73z"/>
<path d="M560.68,399.1v-23.96h9.76c2.55,0,4.8,0.51,6.73,1.52c1.93,1.02,3.43,2.42,4.5,4.23c1.07,1.8,1.61,3.88,1.61,6.23
	c0,2.35-0.54,4.43-1.61,6.23c-1.07,1.8-2.57,3.21-4.5,4.23c-1.93,1.02-4.17,1.52-6.73,1.52H560.68z M563.21,396.91h7.08
	c2.12,0,3.96-0.42,5.53-1.25c1.56-0.83,2.78-1.99,3.65-3.46c0.87-1.47,1.3-3.17,1.3-5.08c0-1.94-0.43-3.64-1.3-5.1
	c-0.87-1.46-2.08-2.61-3.65-3.44c-1.56-0.83-3.41-1.25-5.53-1.25h-7.08V396.91z"/>
<path d="M611.38,396.91h14.41v2.19h-16.94v-23.96h16.43v2.19h-13.9V396.91z M611.1,385.85h12.66v2.16H611.1V385.85z"/>
<polygon points="651.63,399.1 651.63,375.14 653.72,375.14 664.67,393.83 663.58,393.83 674.43,375.14 676.51,375.14 676.51,399.1 
	674.08,399.1 674.08,378.94 674.66,378.94 664.67,396.05 663.47,396.05 653.41,378.94 654.06,378.94 654.06,399.1 "/>
<polygon points="709.92,399.1 709.92,390.2 710.5,391.77 700.34,375.14 703.04,375.14 711.98,389.75 710.54,389.75 719.47,375.14 
	722.01,375.14 711.84,391.77 712.42,390.2 712.42,399.1 "/>
<polygon points="389.84,369.63 389.84,396.6 237.78,396.6 237.78,244.54 389.84,244.54 389.84,281.16 394.84,281.16 394.84,239.54 
	232.78,239.54 232.78,401.6 394.84,401.6 394.84,369.63 389.84,369.63 "/>
<polyline points="408.13,285.44 367.19,348.5 371.38,351.22 412.32,288.16 "/>
</svg>
